<svg xmlns="http://www.w3.org/2000/svg" width="56.21167" height="1.5" viewBox="0 0 56.21167 1.5" creator="Katerina Limpitsouni"><path d="M.72448,1.5c3.93815,0,7.8763,0,11.81445,0C13.50411,1.5,13.50571,0,12.53894,0H.72448C-.24069,0-.24229,1.5,.72448,1.5H.72448Z" fill="#01010C" origin="undraw"/><path d="M22.19861,1.5c3.93815,0,7.8763,0,11.81445,0C34.97824,1.5,34.97984,0,34.01306,0h-11.81445c-.96518,0-.96678,1.5,0,1.5h0Z" fill="#01010C"/><path d="M43.67274,1.5c3.93815,0,7.8763,0,11.81445,0C56.45237,1.5,56.45397,0,55.48719,0h-11.81445c-.96518,0-.96678,1.5,0,1.5h0Z" fill="#01010C"/></svg>