<svg xmlns="http://www.w3.org/2000/svg" width="54.08138" height="61.92958" viewBox="0 0 54.08138 61.92958" creator="Katerina Limpitsouni"><path d="M11.567,61.92958c10.18426,0,20.36852,0,30.55278,0,.96518,0,.96678-1.5,0-1.5-10.18426,0-20.36852,0-30.55278,0-.96518,0-.96678,1.5,0,1.5h0Z" fill="#01010C" origin="undraw"/><path d="M25.40887,61.17958c.20417-2.31759,.19827-4.66658,.219-6.99113,.02025-2.27087,.18783-4.6939-.3433-6.92256-.74699-3.13441-3.20408-6.11214-6.69067-5.96715-1.64038,.06821-2.88809,.94704-4.00921,2.07755-.67556,.68122-1.31037,1.45177-2.19187,1.87824-1.51074,.7309-3.51638-.59767-2.13679-2.22043,.53875-.63371-.13053-1.60333-.90887-1.17793-1.31042,.7162-2.81878,1.5886-4.37231,1.27826-1.4898-.29761-2.17226-1.59255-2.57825-2.93667-.82281-2.72412-1.01913-5.68348-.80556-8.51077,.21134-2.79772,.84978-5.75664,2.15703-8.25888,1.33555-2.55642,3.97226-4.75496,6.99342-3.6473,.9077,.3328,1.29913-1.11631,.39876-1.44642-3.22812-1.18354-6.43756,.74313-8.17351,3.44313C1.04293,24.76966,.26202,28.63199,.06107,32.13517c-.18603,3.24304-.02878,7.38593,1.64097,10.27988,1.9357,3.3549,5.62255,2.25551,8.4022,.73632l-.90887-1.17793c-2.42589,2.85349,.83297,6.19094,3.95452,4.5763,1.73894-.89947,2.69648-3.02508,4.59739-3.60479,2.22365-.67813,4.35976,.84544,5.36406,2.73726,1.28981,2.42965,1.03681,5.39715,1.01992,8.05704-.0157,2.4725-.00521,4.97504-.2224,7.44034-.08469,.96138,1.41581,.95568,1.5,0h0Z" fill="#01010C"/><path d="M8.04205,18.61982c-1.92646-6.34545,1.17569-13.22411,7.37868-15.73222,2.83203-1.1451,5.97097-1.38094,8.99673-1.29936,2.72033,.07334,7.43518,1.09366,6.77543,4.84908-.11549,.65736,.72384,1.36403,1.25354,.72971,1.10569-1.32407,2.69315-1.7808,4.37371-1.8171,1.52987-.03304,3.25689,.05321,4.73241,.48556,1.77726,.52076,2.5462,2.0714,1.89022,3.81831-.55385,1.4749-1.8998,2.52238-3.07548,3.49231-.7452,.61479,.3212,1.67072,1.06066,1.06066,1.57899-1.30266,3.23211-2.76066,3.6557-4.86492,.36146-1.79563-.31759-3.59017-1.95366-4.48508-1.73149-.94711-4.15818-1.01236-6.08096-1.00699-2.12047,.00592-4.25879,.57472-5.66326,2.25659l1.25354,.72971c.61888-3.52277-2.41715-5.95189-5.59502-6.51016C23.45404-.30479,19.27184-.01485,15.81584,1.15011,8.41346,3.6453,4.32024,11.5238,6.59563,19.01858c.27966,.92117,1.72794,.52853,1.44642-.39876h0Z" fill="#01010C"/><path d="M42.75823,13.52786c4.42673,2.27984,7.81472,6.24882,9.16243,11.06869,.75056,2.68424,.8852,5.56279,.33034,8.29806-.26424,1.30261-.64904,2.78085-1.87215,3.50564-1.03774,.61494-2.33866,.61842-3.50647,.64688-4.89934,.11939-10.40793,.21026-14.16434,3.85873-2.23912,2.17478-2.68495,5.65363-3.0685,8.6017-.49144,3.77736-.61107,7.59476-.64988,11.40013-.00985,.9655,1.49015,.96625,1.5,0,.0356-3.4905,.14128-6.98847,.53508-10.45927,.40874-3.60246,.87401-7.48027,4.15988-9.59668,2.47776-1.59591,5.45373-2.05765,8.34299-2.21078,2.33455-.12374,5.12393,.28725,7.29504-.78116,2.20657-1.08587,2.7892-3.63168,3.08841-5.86613,.33852-2.52805,.17049-5.11878-.48738-7.58372-1.4049-5.26395-5.08127-9.69125-9.90839-12.17729-.85681-.44127-1.61648,.8526-.75708,1.29521h0Z" fill="#01010C"/></svg>