<svg xmlns="http://www.w3.org/2000/svg" width="38.7324" height="28.95862" viewBox="0 0 38.7324 28.95862" creator="Katerina Limpitsouni"><path d="M19.74638,27.55929c-6.20669-3.52991-12.41338-7.05982-18.62008-10.58973l.15179,1.17793C7.40059,12.52014,13.52308,6.89279,19.64557,1.26544c.71227-.65467-.35063-1.71327-1.06066-1.06066C12.46242,5.83213,6.33993,11.45948,.21744,17.08682c-.35499,.32628-.25483,.94668,.15179,1.17793,6.20669,3.52991,12.41338,7.05982,18.62008,10.58973,.84036,.47794,1.59703-.8175,.75708-1.29521h0Z" fill="#01010C" origin="undraw"/><path d="M38.36646,27.55929c-6.20669-3.52991-12.41338-7.05982-18.62008-10.58973l.15179,1.17793c6.12249-5.62735,12.24498-11.2547,18.36748-16.88205,.71227-.65467-.35063-1.71327-1.06066-1.06066-6.12249,5.62735-12.24498,11.2547-18.36748,16.88205-.35499,.32628-.25483,.94668,.15179,1.17793,6.20669,3.52991,12.41338,7.05982,18.62008,10.58973,.84036,.47794,1.59703-.8175,.75708-1.29521h0Z" fill="#01010C"/></svg>