<svg xmlns="http://www.w3.org/2000/svg" width="56.31713" height="39.43098" viewBox="0 0 56.31713 39.43098" creator="Katerina Limpitsouni"><path d="M6.70768,8.20524c-.01611,5.00566-.00906,10.19718,1.98623,14.88323,1.6936,3.97752,4.72749,7.22503,8.942,8.4806,2.30954,.68804,4.75457,.82989,7.1506,.86692,2.41675,.03735,4.878-.03597,7.22882-.65111,4.25653-1.11381,7.45186-4.2429,9.26132-8.18652,2.36247-5.14886,2.24884-10.91254,2.09031-16.45281-.01258-.43967-.47692-.9116-.94938-.72321-10.92063,4.35463-23.69445,5.61334-34.76053,1.05969-.89197-.36704-1.28059,1.08355-.39876,1.44642,11.27661,4.64029,24.42717,3.37878,35.55805-1.05969l-.94938-.72321c.22637,7.9111,.15858,18.95502-8.53365,22.61816-2.0848,.87859-4.36917,1.11892-6.61156,1.16937-2.2499,.05062-4.55578,.02114-6.77716-.36719-4.27764-.74779-7.48877-3.24151-9.43387-7.10266-2.36427-4.69324-2.31955-10.13014-2.30305-15.258,.00311-.9653-1.49689-.96663-1.5,0h0Z" fill="#01010C" origin="undraw"/><path d="M43.64928,14.51917c1.72254-1.39062,4.2604-1.3072,5.86737,.21954,1.56488,1.48676,1.72167,3.82052,.89395,5.73268-1.92359,4.44377-7.52227,5.28077-11.72994,5.88854-.95172,.13747-.54699,1.58303,.39876,1.44642,4.28147-.61843,9.01646-1.47059,11.78161-5.16125,2.4041-3.20876,2.02946-8.27838-1.91684-10.07875-2.13875-.97573-4.54861-.5666-6.35555,.89216-.75122,.60647,.31591,1.66191,1.06066,1.06066h0Z" fill="#01010C"/><path d="M8.10528,8.58378c.89607-1.22199,2.37381-2.19771,3.6202-3.02446,1.34529-.89236,2.77951-1.66262,4.27676-2.26806,2.83823-1.14768,5.88267-1.75503,8.94309-1.7895,3.0811-.0347,6.14532,.50852,9.03169,1.58643,2.8095,1.04921,6.00721,2.71171,8.05453,4.95049,.65287,.71392,1.71133-.34914,1.06066-1.06066-2.15538-2.35694-5.42934-4.05644-8.36674-5.20273C31.51086,.52083,28.02761-.07995,24.57849,.00853c-3.32622,.08533-6.61263,.809-9.66718,2.12581-2.8621,1.23384-6.22102,3.12828-8.10124,5.69237-.57143,.77927,.72961,1.52839,1.29521,.75708h0Z" fill="#01010C"/><path d="M11.13616,26.19208c-3.07857-.35178-6.55902-.65315-9.12517,1.443-1.82684,1.49225-2.6946,3.99069-1.37508,6.11032,1.31546,2.11312,4.07102,2.97478,6.35511,3.49152,3.45482,.78159,6.97442,1.31765,10.49634,1.68494,7.40137,.77186,14.88822,.66357,22.26555-.30777,3.46575-.45632,7.02415-.98906,10.38113-1.98522,2.19449-.6512,4.6745-1.73176,5.72953-3.91383,1.26676-2.62-.29014-5.38177-2.56711-6.81577-3.27157-2.06039-7.38045-1.12312-10.87566-.27007-.93734,.22877-.54037,1.67563,.39876,1.44642,2.86198-.69851,6.2653-1.60196,9.07712-.24029,2.14717,1.0398,3.92815,3.59504,2.24772,5.82014-1.3063,1.7297-3.72187,2.39668-5.73075,2.87375-2.88701,.68562-5.81939,1.20821-8.7606,1.59707-5.92917,.7839-11.93674,.9934-17.90681,.64251-2.93399-.17245-5.86082-.47904-8.76497-.9313-2.6189-.40784-5.3709-.78147-7.87176-1.69363-2.41369-.88036-4.95953-3.128-2.80049-5.71866,2.12222-2.54647,5.90965-2.06653,8.82714-1.73315,.95743,.1094,.94961-1.39149,0-1.5h0Z" fill="#01010C"/></svg>