<svg xmlns="http://www.w3.org/2000/svg" width="52.40489" height="31.21978" viewBox="0 0 52.40489 31.21978" creator="Katerina Limpitsouni"><path d="M43.61723,29.14905c-9.08438,.16936-18.18242,.49977-27.26831,.49136-4.01695-.00372-8.3057-.386-11.56949-2.97323-2.79499-2.21561-4.33502-5.9926-2.42161-9.29299,.93602-1.61452,2.60557-2.70715,4.5123-2.53247,1.84483,.16901,3.52503,1.34652,3.98975,3.17876,.20871,.82286,1.47384,.64564,1.47321-.19938-.00439-5.84415,.38647-13.98463,7.18624-15.96385,3.00603-.87497,6.38588-.18604,8.60444,2.08076,2.18437,2.23187,3.04231,5.5403,2.241,8.5475-.2017,.75695,.7044,1.20703,1.25354,.72971,5.28939-4.59761,14.41835-5.76709,18.24788,1.28888,1.65073,3.0415,1.21575,6.52468-1.10106,9.08824-2.20168,2.43616-5.34707,3.84208-8.30596,5.12222-.88358,.38228-.1206,1.67493,.75708,1.29521,5.04914-2.18449,11.54839-5.60431,11.17312-12.06764-.35629-6.13633-6.18265-10.39761-12.07317-10.01913-3.64445,.23416-7.02677,1.85707-9.75854,4.23157l1.25354,.72971c.88262-3.31233,.04727-6.87864-2.16274-9.49563C27.32791,.64079,23.65293-.45037,20.16164,.16813,11.81143,1.64739,10.8279,10.92756,10.83308,17.82111l1.47321-.19938c-.84267-3.32239-4.76112-5.11497-7.91188-3.9268C.96506,14.98814-.63741,19.14408,.23377,22.55062c1.00266,3.92066,4.62664,6.59977,8.35121,7.69763,5.00945,1.47659,10.55357,.85716,15.69986,.76122l19.33239-.36041c.96407-.01797,.96722-1.51803,0-1.5h0Z" fill="#01010C" origin="undraw"/></svg>