<svg xmlns="http://www.w3.org/2000/svg" width="48.69431" height="50.66064" viewBox="0 0 48.69431 50.66064" creator="Katerina Limpitsouni"><path d="M22.55935,49.22956C13.32022,44.11946,6.14999,35.50901,2.9328,25.43484c-1.54162-4.82736-2.20001-10.38968-.25155-15.20468,1.94043-4.79516,6.63076-7.70578,11.78017-7.46562,5.48361,.25574,9.80942,4.49428,10.75504,9.81701,.08264,.46515,.33771,1.2485-.34153,1.35143-.65054,.09857-.63964-.64542-.66944-1.10501-.10932-1.68576,.35149-3.31793,1.23559-4.74725,1.39966-2.26281,3.67443-3.88227,6.03285-5.03005,2.64548-1.28749,5.80187-2.06292,8.69246-1.17586,2.57549,.79036,4.52653,2.86573,5.67297,5.24531,2.51969,5.22994,1.14779,11.80051-.68637,17.0401-3.82812,10.93562-12.42634,20.51745-23.17155,24.99374-.87817,.36583-.49283,1.81784,.39876,1.44642,11.26365-4.69226,20.20546-14.55853,24.21921-26.04139,2.05928-5.89137,3.39539-13.30194,.11058-19.00167-1.43214-2.48502-3.72506-4.52145-6.54264-5.23995-3.05787-.77977-6.26647-.03201-9.07188,1.25838-2.73473,1.25787-5.34652,3.15626-6.94958,5.74791-.79066,1.27825-1.28768,2.70981-1.42002,4.20901-.10136,1.1482-.17631,2.81799,.89389,3.56794,.61438,.43053,1.47244,.4474,2.13279,.11374,.99045-.50046,1.1429-1.46983,.99994-2.47295-.42571-2.98716-1.84065-5.8487-4.01026-7.95552C18.66403,.82569,12.27034,.24174,7.31258,2.85737,2.06658,5.62507-.07088,11.5215,.00179,17.17411c.08735,6.79433,2.81113,13.5496,6.51006,19.16482,3.87172,5.87752,9.13052,10.77884,15.29042,14.18583,.84538,.46758,1.6029-.82739,.75708-1.29521h0Z" fill="#01010C" origin="undraw"/></svg>