<svg xmlns="http://www.w3.org/2000/svg" width="54.96061" height="57.77102" viewBox="0 0 54.96061 57.77102" creator="Katerina Limpitsouni"><path d="M27.15013,.00471c-5.79018-.08577-11.76061,.98757-16.66549,4.21815C6.45118,6.87948,3.4921,10.7928,1.80407,15.29844-1.6399,24.49102,.09549,35.37879,4.90344,43.75897c4.95782,8.6414,13.83582,14.79509,24.08305,13.9312,13.64348-1.15021,24.92753-12.12593,25.90218-25.85397,.9957-14.02452-8.44733-27.17522-21.98585-30.82916C31.0191,.49863,29.09183,.18339,27.15013,.00471c-.96087-.08842-.95485,1.41213,0,1.5,7.09999,.65334,13.79863,3.69763,18.67743,8.94357,4.33178,4.65776,7.04219,10.80964,7.54195,17.15293,.5117,6.49486-1.28564,13.0624-5.29724,18.23093-3.99411,5.146-9.78731,8.57426-16.13393,9.91665-4.71916,.99816-9.68893,.57251-14.06996-1.49766-4.08511-1.93034-7.50798-5.06392-10.08556-8.75054C2.52059,37.97419,.17248,27.93136,2.27906,18.91846c1.01681-4.35035,3.14833-8.40909,6.45907-11.44827,3.74532-3.43812,8.69466-5.22886,13.69644-5.76643,1.56632-.16834,3.14095-.22238,4.71556-.19906,.96558,.0143,.96595-1.48569,0-1.5Z" fill="#01010C" origin="undraw"/><g><path d="M16.37404,29.31632h18.74485c.96518,0,.96678-1.5,0-1.5H16.37404c-.96518,0-.96678,1.5,0,1.5h0Z" fill="#01010C"/><path d="M24.99646,19.1939v18.74485c0,.96518,1.5,.96678,1.5,0V19.1939c0-.96518-1.5-.96678-1.5,0h0Z" fill="#01010C"/></g></svg>