<svg xmlns="http://www.w3.org/2000/svg" width="54.65382" height="23.10099" viewBox="0 0 54.65382 23.10099" creator="Katerina Limpitsouni"><path d="M.72335,3.18612c14.19251-.5618,28.38501-1.1236,42.57752-1.6854,.96202-.03808,.96691-1.53827,0-1.5C29.10837,.56252,14.91586,1.12432,.72335,1.68612c-.96202,.03808-.96691,1.53827,0,1.5H.72335Z" fill="#01010C" origin="undraw"/><path d="M15.79681,12.90213l19.28969-.83323c.96159-.04154,.96678-1.54176,0-1.5l-19.28969,.83323c-.96159,.04154-.96678,1.54176,0,1.5h0Z" fill="#01010C"/><path d="M7.82823,23.09931c15.36792-.9339,30.73584-1.86779,46.10377-2.80169,.95911-.05828,.96575-1.55869,0-1.5-15.36792,.9339-30.73584,1.86779-46.10377,2.80169-.95911,.05828-.96575,1.55869,0,1.5h0Z" fill="#01010C"/></svg>