<svg xmlns="http://www.w3.org/2000/svg" width="59.60015" height="7.31033" viewBox="0 0 59.60015 7.31033" creator="Katerina Limpitsouni"><path d="M1.41762,3.64168c1.13583-1.76304,3.03908-1.92354,4.96524-2.02096,2.14977-.10873,4.30727,.00568,6.44273,.26458,4.35837,.52841,8.62128,1.66201,12.86946,2.73423,7.30208,1.84301,14.86499,3.57939,22.40788,2.18418,4.13926-.76564,7.92287-2.54542,11.23592-5.1262,.76069-.59256-.30764-1.64724-1.06066-1.06066-6.42411,5.00422-14.45878,5.88987-22.30444,4.70255C27.55686,4.04565,19.51001,.86969,10.98699,.20036,7.40444-.08098,2.35565-.58184,.12241,2.8846c-.52434,.81389,.77355,1.56679,1.29521,.75708h0Z" fill="#01010C" origin="undraw"/></svg>